PathFileType	4	(X/Y/Z)	D:\TRACE\spotREDO_2-26-24\spot_Both_Motion_3_4-v60.trc
DataRate	CameraRate	NumFrames	NumMarkers	Units	OrigDataRate	OrigDataStartFrame	OrigNumFrames
100.00	100.00	      35	9	mm	100.00	4376	      7000
Frame#	Time	front left toe			Front right toe			aft left toe			aft right toe			Arm			FL body			FR body			AL Body			AR Body			
		X1	Y1	Z1	X2	Y2	Z2	X3	Y3	Z3	X4	Y4	Z4	X5	Y5	Z5	X6	Y6	Z6	X7	Y7	Z7	X8	Y8	Z8	X9	Y9	Z9	

4376	43.750	-133.98514	23.53712	-491.90024	268.33762	-45.36561	-489.47705	-92.39790	34.75379	135.28299	292.23697	25.74336	32.79557	80.27643	580.71045	-820.64893	9.37479	461.57693	-556.76514	163.65454	467.80450	-565.87329	48.27610	589.98859	317.14044	195.40697	586.22980	312.56903	
4377	43.760	-136.17410	15.23445	-492.99875	268.07498	-45.07205	-489.35965	-92.26482	34.40745	135.37717	292.23077	25.75953	32.75552	79.31020	582.18591	-820.61420	7.89986	460.61591	-556.96875	162.82753	466.74933	-565.62982	47.16040	589.98236	316.48178	194.50862	586.42834	312.21927	
4378	43.770	-138.31023	5.08481	-495.26001	268.06018	-44.09137	-489.37576	-92.03123	34.34919	135.53810	292.25186	25.76009	32.72809	78.67899	583.42487	-820.35345	6.44287	460.22354	-557.02649	161.71677	466.17346	-565.55865	46.70668	590.20135	316.36728	193.72008	586.65973	311.92889	
4379	43.780	-140.51471	-5.30907	-497.77271	268.03891	-43.66756	-489.63748	-91.74809	34.27766	135.77869	292.33853	25.76322	32.68756	78.49679	584.38831	-820.20703	4.45315	459.68234	-556.94885	159.74773	465.98730	-565.92737	46.22676	590.30054	316.29996	193.39032	586.76208	311.76578	
4380	43.790	-142.45009	-15.20478	-500.22665	267.47241	-43.15925	-489.56564	-91.36694	34.26221	136.01831	292.48560	25.64532	32.59283	79.05993	585.48364	-819.49713	2.56824	459.58194	-557.22784	157.69312	466.05450	-566.68884	45.38411	590.28400	316.15610	192.98578	586.95465	311.40649	
4381	43.800	-144.22444	-25.56617	-501.61691	266.97607	-42.62297	-489.87009	-91.09832	34.14859	136.22659	292.60135	25.57455	32.56028	79.63354	585.74670	-819.16046	0.49692	459.32968	-557.11481	155.32809	465.99719	-566.98846	44.32608	590.30670	316.05505	191.55028	586.88708	310.81073	
4382	43.810	-145.97015	-36.66607	-501.93591	266.56540	-42.08525	-490.07767	-90.95902	34.07210	136.45401	292.74088	25.57925	32.55622	80.09953	586.03522	-818.91895	-1.70904	459.36612	-557.18677	153.30800	465.99869	-566.93073	43.33643	590.68353	316.04712	190.61450	587.06030	310.47778	
4383	43.820	-147.10123	-37.92825	-504.71533	266.49918	-41.85386	-489.98285	-90.81170	33.94101	136.62193	292.73605	25.45333	32.50587	80.38245	586.34259	-818.83093	-4.16032	459.84360	-557.22272	151.21310	466.32785	-566.97235	42.23298	590.85522	315.98859	189.90103	587.40912	310.53394	
4384	43.830	-147.99586	-36.83166	-502.12424	265.88614	-40.16458	-489.73157	-91.23629	33.36362	136.81998	293.34555	25.73544	32.13957	81.74938	586.50720	-818.62927	-6.25470	461.06311	-557.29956	148.77573	467.54398	-567.73181	40.73186	591.11334	316.03690	187.89641	587.23615	310.09668	
4385	43.840	-148.17256	-36.69384	-502.70227	264.85098	-38.66766	-489.51981	-91.76806	33.15382	136.85976	293.09396	26.61912	32.40767	82.18663	586.75922	-818.56818	-8.41919	462.30676	-557.68262	146.62726	468.09628	-568.08972	39.49350	591.57953	315.79785	186.67967	587.29816	309.78528	
4386	43.850	-148.17842	-36.10965	-502.16605	264.64545	-38.07970	-489.75824	-92.08723	33.23131	136.99367	292.26636	26.86268	32.02011	82.41628	587.00323	-818.29871	-10.33552	463.30374	-558.00195	145.04175	468.02249	-567.74054	38.21658	591.51746	315.36966	185.19337	586.84967	309.70401	
4387	43.860	-148.27367	-35.84579	-502.39413	265.03189	-37.75779	-489.15533	-92.07861	33.00268	137.00105	291.77625	26.84715	32.33787	82.66047	586.78625	-818.02698	-11.71142	463.77167	-558.08575	143.80791	468.12973	-567.79956	36.42078	592.28113	315.51508	183.44966	586.70630	309.70221	
4388	43.870	-148.12048	-35.69925	-502.36139	265.46017	-37.63155	-489.08340	-92.20807	32.63833	137.13557	292.04333	26.95433	32.50312	82.79865	586.17413	-817.87122	-12.71034	464.14371	-558.40466	142.67758	467.92410	-567.96069	34.43688	592.21173	314.96017	181.55916	586.50342	309.44708	
4389	43.880	-147.97049	-35.35849	-502.44318	265.56775	-37.43081	-489.03372	-92.44090	32.34359	137.10526	291.81125	26.92377	32.55333	83.20741	585.55615	-817.99323	-13.42973	464.27350	-558.80969	141.59106	467.81631	-568.70703	32.88727	592.70483	314.87057	179.81319	586.46454	309.50809	
4390	43.890	-147.77162	-34.84501	-502.29178	265.76682	-36.69218	-488.67404	-92.56033	32.19397	137.17430	291.57300	26.97511	32.56917	83.69868	585.22809	-818.31030	-14.13970	464.03851	-559.28101	140.93895	467.54663	-568.82440	31.30390	592.82465	314.42584	178.26282	586.50116	309.30362	
4391	43.900	-147.62888	-34.24902	-502.07849	265.61749	-36.43294	-488.80109	-92.59153	31.86906	137.21088	291.59467	27.02921	32.57428	83.92697	585.17218	-818.40509	-14.72636	463.74301	-559.68256	140.47284	467.18628	-569.04645	29.78951	593.02057	313.93152	176.83727	586.50397	308.88928	
4392	43.910	-147.64613	-33.94972	-502.01404	265.62585	-36.21653	-488.73804	-92.65549	31.67272	137.31601	291.45062	27.11206	32.61587	83.87529	584.93024	-818.61053	-15.30474	463.32892	-560.03754	139.99506	466.35385	-568.80365	28.22471	592.89941	313.58902	175.19881	586.18359	308.69818	
4393	43.920	-147.61426	-33.84322	-501.92981	265.75446	-36.10991	-488.71732	-92.65643	31.41978	137.42831	291.50464	27.16090	32.71543	83.66164	584.70807	-818.84375	-15.81767	462.64822	-560.30231	139.58759	465.93106	-568.95868	26.95117	592.59430	313.25964	174.15125	586.28302	308.53036	
4394	43.930	-147.59465	-33.65369	-501.90619	265.65829	-35.94429	-488.68365	-92.59026	31.16013	137.54782	291.59760	27.10277	32.86192	83.27590	584.85864	-818.99103	-16.29563	462.11075	-560.58887	138.97508	465.20276	-569.35016	25.99352	592.13190	312.52051	172.98186	586.09601	308.10931	
4395	43.940	-147.68765	-33.32898	-501.88297	265.68280	-35.41115	-488.48120	-92.53998	31.12896	137.64063	291.69144	27.05304	32.97436	82.43033	584.99316	-819.35504	-16.71915	461.34515	-561.24158	138.66185	464.77481	-569.68848	25.32867	592.31549	312.28415	172.01311	586.08478	307.54849	
4396	43.950	-147.61574	-32.97157	-501.79868	265.74805	-35.05756	-488.48459	-92.35583	31.08609	137.77914	291.75824	27.03415	33.05217	82.09338	585.24261	-819.54633	-17.28920	461.06015	-561.56525	137.95454	464.76828	-570.48633	24.82169	592.03296	312.02267	171.71535	585.94342	307.32849	
4397	43.960	-147.50150	-32.83474	-501.52731	265.79053	-34.36720	-488.26617	-92.27057	31.01570	137.89389	291.86935	26.92900	33.09297	81.81973	585.45160	-819.45068	-17.99784	460.58447	-561.84015	137.12846	464.44882	-570.96661	24.12786	591.52820	311.66742	171.31140	585.63501	307.06372	
4398	43.970	-147.56258	-32.57707	-501.41232	265.67648	-34.16364	-488.30603	-92.25394	30.95232	137.92351	291.89478	26.87524	33.12181	81.47385	585.71832	-819.38092	-18.51514	459.89474	-561.96863	136.73706	463.85873	-570.77295	23.81050	590.80219	311.07742	171.07877	585.36261	306.74777	
4399	43.980	-147.44209	-32.44730	-501.29166	265.95773	-33.82982	-488.33643	-92.09744	30.86440	137.95766	292.20255	26.96874	33.24945	81.38899	585.81366	-819.34515	-19.24209	459.62775	-562.42523	135.95703	463.69412	-571.30048	23.56648	590.42267	310.73080	170.53352	585.05133	306.05975	
4400	43.990	-147.50429	-32.13114	-501.21588	266.01117	-33.22356	-488.17578	-91.97395	30.83578	138.07426	292.29477	26.97209	33.28096	81.36691	586.00128	-819.36188	-20.16346	459.42267	-562.93317	135.05348	463.58209	-571.85962	23.59547	590.30719	310.60504	170.60713	584.54449	305.47733	
4401	44.000	-147.49788	-31.76076	-501.09848	265.89536	-33.01659	-488.16907	-91.91312	30.82849	138.29866	292.47910	27.04332	33.37020	81.56369	586.21698	-819.31244	-20.81808	459.44183	-563.20300	134.10356	463.68259	-572.80371	23.80488	589.70691	310.29590	170.82462	584.14313	305.09253	
4402	44.010	-147.59746	-31.31001	-500.96344	265.84927	-32.70236	-488.32764	-91.83641	30.86781	138.47348	292.63681	27.05398	33.48145	82.03887	586.48651	-819.21063	-21.61933	459.51761	-563.41864	133.52623	463.69281	-572.78772	23.78369	589.22913	310.03598	170.89067	583.54425	304.74811	
4403	44.020	-147.65900	-31.03059	-500.81213	265.82892	-32.49791	-488.47433	-91.73751	30.83970	138.66464	292.77121	27.05958	33.60168	82.55791	586.55597	-819.05005	-22.43243	459.55734	-563.79871	133.05708	463.81036	-573.19238	23.66940	588.29968	309.49796	171.27588	582.95691	304.60876	
4404	44.030	-147.64980	-30.93569	-500.70685	265.77887	-32.37852	-488.46628	-91.65235	30.72089	138.76469	292.82419	27.09097	33.74712	82.99393	586.53961	-818.83063	-22.86649	459.59329	-564.19641	132.53963	464.13525	-574.07324	23.41327	587.91998	309.37888	170.76311	582.34027	303.89874	
4405	44.040	-147.60519	-30.75615	-500.67038	265.82254	-32.13154	-488.47427	-91.54698	30.59436	138.81557	292.97040	27.19209	33.91130	83.58144	586.64233	-818.77423	-23.12996	459.86386	-564.65430	132.09779	464.32321	-574.71991	23.37086	587.10364	309.14474	170.41360	581.68872	303.42569	
4406	44.050	-147.37209	-30.23852	-500.60922	265.87491	-31.37922	-488.21185	-91.50546	30.53317	138.85107	292.87421	27.18317	33.94651	83.79329	587.03351	-818.72058	-23.20256	460.29047	-565.24017	132.04176	464.64572	-574.56146	23.06635	586.52081	308.70200	170.04814	581.00684	303.13922	
4407	44.060	-147.19525	-29.78328	-500.57275	266.23572	-30.94517	-487.99881	-91.43353	30.48928	138.99718	293.05124	27.27443	34.04134	84.06503	587.48969	-818.65759	-23.35932	460.79776	-565.74274	131.96675	465.24609	-575.18848	22.78331	585.43909	308.13943	169.92639	580.56940	302.78476	
4408	44.070	-146.81032	-30.00275	-500.38797	266.38919	-30.61382	-487.97958	-91.42990	30.38043	139.10786	293.01074	27.32306	34.08942	84.13555	587.80438	-818.71155	-23.29921	461.22604	-566.17139	132.12195	465.53223	-575.48944	22.33404	585.23322	308.07437	169.52718	579.91803	302.70889	
4409	44.080	-147.26500	-29.62814	-500.65482	266.39618	-30.37786	-488.10797	-91.46532	30.09330	139.17650	293.14355	27.59605	34.40124	83.78712	588.16949	-819.25562	-23.22320	461.75528	-566.69281	132.12778	466.12753	-576.35583	22.30071	584.82941	307.84253	168.94499	579.11481	302.48706	
4410	44.090	-147.26833	-29.45812	-500.76218	266.28348	-30.18236	-488.13705	-91.46358	29.78606	139.38498	293.10110	27.55672	34.44162	83.27438	588.50153	-820.29901	-22.73504	462.39182	-567.16565	132.40111	466.55344	-576.71735	22.05413	584.55225	307.60968	168.73749	578.85608	302.42142	
